	<svg xmlns="http://www.w3.org/2000/svg" width="98%" height="100%" viewBox="0 0 1881 950">
  <path
     d="m 120.32507,156.83681 -68.757185,31.92298 -1.227807,-3.06952 33.764687,-16.57539 -15.961488,-1.22781 12.278068,-12.89197 -5.525131,-1.84171 0,-4.91122 33.764686,-5.52513 1.22781,-5.52514 7.98074,-3.68342 -29.467361,3.06952 0,-6.13903 35.606401,-6.75294 4.29732,-1.22781 -7.98074,-6.13903 12.27806,-3.68342 54.63741,-12.27807 68.75718,10.43636 38.06201,-4.91123 33.76468,5.52513 13.50588,2.45562 -1.22781,5.52513 7.36684,0 27.01175,-3.06952 41.74543,3.06952 6.13904,0.6139 15.34758,-5.52513 5.52513,-14.733682 3.68342,-1.841711 5.52513,1.841711 -0.6139,11.664162 6.75294,-4.29732 4.29732,6.13903 -3.68342,7.36684 -12.89197,10.43636 -0.61391,5.52513 -13.50587,2.45561 -21.48662,10.43636 -12.89197,7.36684 4.29732,3.06952 0,3.06952 -14.73368,1.2278 -1.2278,8.59465 17.18929,12.27807 22.10052,8.59465 -2.45561,23.32833 8.59465,0 20.25881,-24.55614 11.66416,-9.82245 4.29733,-16.5754 6.13903,-1.2278 3.06952,-9.82246 17.18929,-8.59464 1.84171,3.68342 6.13904,4.29732 9.20855,8.59465 -1.84171,7.36684 9.20855,3.68342 13.50587,-10.43636 4.91123,6.75294 -2.45561,11.66416 6.75293,15.34759 7.36685,-0.61391 5.52513,7.36684 -2.45562,5.52514 -3.68342,4.91122 -29.46736,7.36684 -15.96149,0 -22.71442,11.66417 18.4171,-2.45562 -1.84171,5.52513 -4.91123,7.98075 -15.34759,13.50587 -25.17003,11.05026 -1.22781,8.59465 -18.4171,4.91123 -9.20855,9.20855 -10.43636,9.20855 0,11.05026 -17.1893,13.50588 -21.48662,13.50587 -6.75293,10.43636 -1.22781,16.57539 1.84171,7.36684 0.6139,7.36684 -5.52513,3.68342 -7.36684,-9.82245 -1.2278,-19.03101 -2.45562,-6.13903 -9.20855,3.68342 -6.75294,0 -0.6139,-8.59465 -5.52513,1.84171 0,7.36684 -23.32833,-1.84171 -3.06952,-25.78394 -12.89197,-10.43636 -45.42885,1.22781 1.84171,15.34758 -5.52513,17.1893 -21.48662,-8.59465 0.61391,-14.11978 3.68342,-15.34758 0.6139,-33.15078 42.35933,1.2278 -1.84171,18.4171 38.67592,0 -3.06952,-14.73368 4.91123,-25.17004 -46.04276,-0.6139 -6.75293,-4.29732 -4.29733,-12.27807 -4.91123,-12.27807 -5.52513,-2.45561 -7.36684,4.91122 0,22.10053 -6.13903,20.25881 -46.04276,0 -11.05026,0.6139 -3.68342,-4.91123 13.50588,-21.48661 10.43636,-11.05027 7.98074,-3.06951 0.6139,-12.27807 -9.82245,-9.82245 2.45561,-14.11978 5.52513,-4.91123 0,-11.66416 -6.13903,-8.59465 -9.82246,-3.68342 -16.57539,-10.43636 -17.8032,-0.6139 -20.25881,4.91122 z"
     id="terr5" onmouseover="showConsoleTerr(this.id)" onmouseout="cleanConsoleTerr()" />
  <path
     d="m 367.72813,497.5532 4.29733,-3.68342 -9.82246,-4.91123 -9.82245,1.22781 -7.98075,4.91122 -6.75293,-6.75293 -6.75294,-11.05026 2.45561,-9.82246 -1.2278,-17.8032 -11.05026,-2.45561 -19.03101,1.84171 -0.6139,-1.22781 7.36684,-6.75293 0.6139,-8.59465 5.52513,-8.59465 6.13904,-8.59465 -3.68342,-4.91122 -14.11978,2.45561 -2.45562,7.98074 -1.2278,5.52513 -20.87272,2.45562 -13.50587,-4.29733 -5.52513,-7.98074 1.84171,-23.94223 1.2278,-17.1893 9.20855,-7.98074 15.34759,-8.59465 12.27807,-6.75294 5.52513,-0.6139 -2.45562,-25.78394 -12.89197,-10.43636 -46.04275,1.84171 1.84171,14.11978 -5.52513,17.8032 -21.48662,-7.98075 1.22781,-16.57539 3.68342,-14.11978 0,-33.15078 42.97323,1.84171 -1.84171,18.4171 38.67592,1.22781 -3.68342,-15.34759 4.91122,-25.78394 -46.04275,0 -6.13903,-4.29732 -9.20856,-25.78395 -5.52513,-1.84171 -7.98074,6.75294 0,20.87272 -6.13903,19.64491 -57.09302,0.6139 -3.68342,-4.91123 -15.96149,31.92298 22.10052,30.69517 1.22781,12.27807 0,7.36684 15.34759,41.13152 3.06951,1.84171 1.84171,-6.13903 -14.73368,-38.67591 0.6139,-11.05027 12.27807,6.13904 2.45562,19.031 21.48661,35.6064 7.36685,11.66417 -7.98075,5.52513 9.82246,7.98074 9.20855,7.98074 19.031,8.59465 17.8032,4.29733 7.36684,-5.52513 13.50588,15.96148 7.36684,6.75294 11.66416,-6.13903 5.52513,3.68342 1.84171,12.27807 10.43636,15.34758 10.43636,11.66416 10.43635,6.13904 6.75294,-2.45562 -4.91122,-4.91122 4.29732,-5.52513 6.75294,0 5.52513,1.84171 z"
     id="terr4" onmouseover="showConsoleTerr(this.id)" onmouseout="cleanConsoleTerr()" />
  <path
     d="m 524.8874,532.54569 -14.73368,0.6139 -11.05026,3.68343 -17.8032,6.75293 -12.89197,-9.82245 1.84171,-12.27807 -6.13903,-3.06952 -12.27807,10.43636 -3.06952,15.96149 -12.89197,0.6139 -11.05026,-8.59464 -9.20855,2.45561 -2.45562,8.59465 3.68343,23.32833 -5.52514,3.06951 -5.52513,-6.75294 -6.13903,3.06952 0,7.98075 -6.75294,13.50587 2.45562,9.20855 19.64491,22.71443 7.36684,-1.22781 12.89197,-13.50587 1.2278,9.20855 0.61391,14.11977 11.66416,2.45562 6.13904,-3.68342 -1.22781,7.36684 13.50587,0.6139 24.55614,35.6064 -0.6139,6.75294 4.91122,6.75293 9.20855,15.96149 6.75294,-3.06952 3.06952,10.43636 -2.45561,19.64491 -6.13904,6.13904 -0.6139,12.89197 -9.82246,12.89197 12.89197,15.34758 15.34759,-1.2278 8.59465,-12.27807 0,-9.20855 9.82245,-5.52513 1.22781,-13.50588 6.75294,-4.91123 -0.61391,-14.11977 4.91123,-6.13904 9.20855,-7.98074 14.11978,-2.45562 12.27807,-9.20855 2.45561,-14.11977 4.29732,-15.96149 3.68342,-24.55614 9.82246,-16.57539 7.98074,-10.43636 2.45562,-10.43636 -1.22781,-12.27806 -7.36684,-5.52513 -7.36684,-0.61391 -4.91123,-4.91122 -5.52513,-6.13904 -3.68342,-3.06952 -14.73368,2.45562 -9.20855,-3.68342 -9.82246,-4.29733 -8.59464,-7.98074 -9.82246,6.75294 -7.36684,-2.45562 -2.45561,-11.05026 -3.06952,-8.59464 z"
     id="terr7" onmouseover="showConsoleTerr(this.id)" onmouseout="cleanConsoleTerr()" />
  <path
       d="m 524.2735,532.54569 -1.22781,-9.82245 -8.59464,-9.20855 -16.5754,-2.45562 -9.20855,-3.06951 -13.50587,-9.20856 -9.82246,-7.98074 4.29733,-6.75294 0,-1.2278 -9.82246,-0.61391 -21.48662,0 -23.94223,-14.73368 -4.29732,7.36684 -1.22781,7.36684 -6.75294,0.61391 2.45562,-7.36684 -6.13904,-3.68342 -13.50587,6.13903 -1.84171,5.52513 -4.29733,6.75294 -7.36684,2.45561 -3.06951,6.13903 -3.06952,4.91123 5.52513,4.29733 0.6139,7.36684 1.22781,10.43635 -11.66416,11.66417 -7.36684,11.05026 -4.29733,11.05026 -1.84171,14.11978 1.84171,14.11978 9.20855,9.82245 9.82246,15.96149 4.29732,15.34758 5.52513,12.89198 9.82246,9.20855 6.13903,1.2278 11.05026,5.52513 6.13903,7.98075 11.66417,14.11978 0.6139,16.57539 -0.6139,25.78394 -1.22781,28.23956 3.68342,34.37859 2.45562,22.71442 3.68342,5.52513 5.52513,3.68342 8.59464,11.05026 0.61391,11.66417 -1.22781,7.98074 -4.91123,3.68342 2.45562,6.75294 6.13903,4.29732 5.52513,9.20856 7.98075,13.50587 6.75293,0 8.59465,2.45561 5.52513,-1.2278 -1.2278,-4.91123 0.6139,-13.50587 -3.06952,-12.27807 -9.82245,-8.59465 10.43636,-7.36684 3.68342,-6.13904 -3.06952,-7.98074 -1.22781,-7.36684 5.52513,-4.29732 4.91123,-4.29733 3.68342,-9.20855 1.22781,-6.13903 7.98074,5.52513 8.59465,0 2.45561,-10.43636 -5.52513,-11.66416 -12.27807,-14.11978 9.82246,-12.89197 0,-13.50588 6.13903,-5.52513 3.68342,-19.64491 -4.29732,-10.43636 -6.13904,3.06952 -14.11977,-23.32833 0.6139,-6.75293 -24.55614,-35.6064 -13.50587,0.6139 0.6139,-9.82245 -6.13903,5.52513 -11.66417,-3.68342 -0.6139,-22.10052 -12.89197,12.89197 -7.36684,2.45561 -19.64491,-22.71443 -2.45561,-9.20855 6.13903,-13.50587 0,-9.20855 4.91123,-2.45562 6.75293,4.91123 6.75294,-1.2278 -4.91123,-23.32833 2.45562,-9.20855 10.43636,-1.84171 9.20855,7.36684 13.50587,0.6139 3.06952,-16.57539 12.89197,-10.43636 4.29732,3.06952 -0.6139,13.50587 13.50588,8.59465 28.85345,-9.82246 z"
       id="terr6-1" onmouseover="showConsoleTerr(this.id)" onmouseout="cleanConsoleTerr()" />
  <path
       d="m 488.0532,897.81821 -4.91123,-1.53476 1.53476,-2.76256 8.2877,-0.61391 13.19892,12.27807 -1.22781,3.06952 -9.82245,-2.14866 -6.75294,-1.53476 -6.13903,-4.29733 1.84171,-1.84171 z"
       id="terr6-2" onmouseover="showConsoleTerr(this.id)" onmouseout="cleanConsoleTerr()" />
  <path
       d="m 919.62729,403.01207 12.89197,-0.6139 7.36684,8.59465 14.11978,1.22781 9.20855,3.68342 9.20855,15.96148 -3.68342,18.41711 -4.91123,4.29732 -4.29732,-1.22781 7.36684,18.41711 3.06951,6.75293 -9.82245,4.29733 -11.66416,1.2278 -11.05027,10.43636 -13.50587,7.36684 -2.45561,18.4171 -0.61391,11.66417 5.52513,3.68342 10.43636,-0.61391 3.06952,4.29733 -1.22781,7.36684 -6.13903,3.68342 -2.45562,17.8032 -25.17004,14.73368 1.84171,4.29732 27.01175,-2.45561 7.98075,4.91123 6.75294,3.68342 7.98074,0.6139 2.45561,9.82246 3.68342,12.89197 1.22781,7.98074 7.36684,5.52513 18.4171,-1.22781 2.45562,6.75294 17.18931,6.13904 -3.6834,-11.66417 -4.9113,-7.36684 -1.22777,-6.13903 4.91127,-5.52513 8.5946,0 10.4364,2.45561 2.4556,11.05026 8.5946,14.11978 6.753,6.13903 1.2278,-7.98074 6.7529,-6.13904 12.2781,-3.68342 9.2085,2.45562 -1.2278,19.64491 -6.7529,10.43635 -13.5059,4.91123 -9.2085,7.36684 -9.2086,7.98075 3.6834,12.27806 3.6834,6.13904 -1.2278,7.36684 -4.2973,12.89197 -9.8224,0 -1.8418,5.52513 1.2279,6.13903 0.6139,4.91123 -9.8225,4.91123 -7.3668,10.43636 -11.6642,12.27806 -10.43636,8.59465 -9.82246,2.45562 -2.45561,-4.29733 -23.32833,6.13904 -4.29732,0 4.29732,-8.59465 -3.68342,-5.52513 -3.68342,-4.91123 -6.75294,-3.06952 -4.29732,-12.27806 -5.52513,-15.34759 -4.91123,-12.89197 8.59465,3.68342 -4.29732,-9.82245 -6.13904,-6.75294 -7.36684,-14.11978 -4.91123,-16.57539 -3.68342,-9.82246 1.22781,-10.43635 4.91123,-19.03101 3.68342,-13.50587 -1.84171,-17.8032 -3.06952,-7.98075 -4.91123,-11.66416 2.45562,-18.4171 -10.43636,6.75293 -7.98074,-6.75293 -2.45562,-8.59465 5.52513,-8.59465 4.91123,-12.27807 -4.29732,-3.68342 -8.59465,-6.75293 3.06952,-12.27807 8.59464,-3.06952 13.50588,-4.91123 1.84171,-9.20855 7.98074,-17.18929 0,-7.36684 -3.68342,-9.82246 -1.2278,-4.29732 8.59464,-7.98074 8.59465,-12.27807 1.84171,-6.75294 -1.22781,-6.75294 -7.98074,-9.82245 z"
       id="terr9-1" onmouseover="showConsoleTerr(this.id)" onmouseout="cleanConsoleTerr()" />
  <path
       d="m 1122.2154,635.68146 -2.4556,7.98075 -9.8225,6.13903 -12.278,6.13903 -3.6834,4.29733 3.0695,11.05026 0.6139,6.75294 -7.3669,12.27806 -2.4556,14.73369 -1.2278,6.75293 13.5059,4.91123 4.9112,-1.84171 5.5251,-20.25881 7.9808,-20.25881 3.0695,-14.11978 6.139,-15.96149 z"
       id="terr9-2" onmouseover="showConsoleTerr(this.id)" onmouseout="cleanConsoleTerr()" />
  <path
     d="m 969.66041,478.21524 44.50799,-1.22781 11.0503,3.99038 3.0695,14.42673 8.2877,1.84171 1.2278,12.27806 11.6642,6.44599 13.8128,11.05026 7.6738,7.05989 7.3668,-2.14866 -3.3765,12.58502 5.8321,12.27807 -10.1294,10.43635 -4.2973,3.99037 -1.2278,8.59465 3.9904,2.76257 1.5347,46.96361 -9.2085,-2.76257 -12.585,3.68342 -6.753,7.05989 -0.9208,7.67379 -6.753,-5.83208 -8.9016,-14.11978 -2.4556,-11.97111 -9.8224,-1.84171 -8.9016,-0.30695 -4.91127,5.83208 1.22777,6.75294 5.2182,6.44598 3.3765,11.35721 -18.11017,-6.13903 -1.84171,-7.05989 -18.4171,2.14866 -7.36684,-6.13903 -0.6139,-9.5155 -6.44599,-21.17967 -8.59465,-0.30695 -14.73368,-8.59465 -26.7048,2.45561 -1.53475,-4.91122 24.86308,-13.81283 2.76257,-18.72405 6.13903,-2.76257 1.84171,-7.67379 -3.68342,-4.91123 -11.66416,0.92086 -4.29733,-3.68342 3.06952,-30.08127 14.42673,-7.36684 10.12941,-10.12941 11.66416,-1.2278 z"
     id="terr11" onmouseover="showConsoleTerr(this.id)" onmouseout="cleanConsoleTerr()" />
  <path
     d="m 978.25506,344.9982 7.05989,1.22781 13.81283,3.99037 23.32832,-1.53476 6.446,9.82246 1.5347,9.82245 -4.2973,-3.68342 -1.5347,2.45562 17.1893,33.76468 8.2877,23.94224 17.1893,20.25881 12.278,15.04063 9.2086,10.43636 3.6834,11.05026 7.6738,0.6139 7.6738,-5.21818 15.6545,-1.2278 10.1294,1.2278 -1.2278,12.27807 -4.9112,10.43636 -19.9519,32.22993 -6.139,3.37647 -6.7529,8.9016 -13.199,12.89197 -6.446,-13.19893 3.6835,-12.58502 -7.3669,3.06952 -22.1005,-18.72405 -11.6642,-6.13904 -1.2278,-13.19892 -8.5946,-1.53476 -2.4556,-14.11978 -11.0503,-3.68342 -44.20104,0.92086 -11.35721,-25.17004 3.99037,1.53476 6.44599,-4.60428 3.37647,-18.4171 8.59465,-24.24918 -3.37647,-14.42673 -1.53476,-20.56577 z"
     id="terr10" onmouseover="showConsoleTerr(this.id)" onmouseout="cleanConsoleTerr()" />
  <path
     d="m 919.32033,402.70512 -10.43635,-3.68342 -8.9016,-5.52513 -7.36684,7.05989 -11.35722,3.37647 -3.37646,9.20855 -19.64491,9.82245 -2.45562,23.63529 -5.21818,3.99037 -9.82245,-1.22781 -4.91123,-0.30695 -3.37647,7.05989 4.91123,4.91123 13.19892,0.6139 3.37647,7.67379 -5.52513,4.91123 -12.58502,0.6139 -7.67379,5.21818 -0.30695,7.98074 6.13903,11.66417 2.14866,10.12941 8.9016,-2.14867 14.73369,0 7.67379,14.42673 7.36684,-0.6139 5.83208,-1.22781 3.06952,-12.27806 22.10052,-7.36685 1.53476,-9.20855 7.67379,-16.57539 0.92086,-7.67379 -5.83208,-14.11978 8.59464,-8.59465 9.20855,-11.66416 1.84171,-7.67379 -1.53476,-5.52513 -7.98074,-10.12941 z"
     id="terr8" onmouseover="showConsoleTerr(this.id)" onmouseout="cleanConsoleTerr()" />
  <path
     d="m 835.21556,510.13822 -4.91123,3.68342 -13.50587,0.61391 -26.39785,1.53475 -12.27806,3.06952 -7.05989,-3.68342 -9.82246,-7.98074 -7.98074,-9.20855 -8.9016,-10.43636 0.6139,-6.75294 -9.82245,-6.44599 -5.52513,-9.20855 3.37647,-12.89197 2.76256,-9.82245 7.05989,-10.12941 -6.13903,-11.05026 -2.14866,-7.67379 1.2278,-7.98074 8.9016,-13.81283 17.1893,-26.09089 14.11977,-8.9016 3.68342,-7.05989 -2.76256,-7.98075 12.58502,-11.97111 11.35721,-4.29733 16.26844,-2.45561 11.35721,-1.53476 11.66417,-5.83208 7.36684,-2.45561 9.82245,-4.29733 7.98075,4.60428 15.34758,-3.06952 9.5155,-4.91123 0.61391,7.36684 0,7.6738 4.91122,9.82245 15.34759,5.52513 6.44599,2.14866 -0.30696,7.05989 9.82246,4.29733 12.89197,5.21817 5.83208,-4.60427 2.14866,-6.13904 0.30695,-7.98074 5.52514,-2.14866 8.59464,3.68342 16.26844,7.36684 -2.45561,26.7048 2.14866,20.56576 2.76257,14.73368 -8.59465,24.24919 -9.5155,-15.96149 -8.9016,-3.37647 -14.42673,-1.53476 -7.05989,-7.98074 -13.50588,0.6139 -11.05026,-4.29732 -8.28769,-5.83209 -7.05989,7.98075 -11.05026,3.06952 -3.37647,9.5155 -20.56577,9.5155 -1.84171,23.94223 -4.91122,3.99037 -14.42673,-1.53475 -4.60428,7.05989 4.91123,4.60427 14.42673,0.6139 3.06952,8.59465 -6.44599,4.60428 -11.66416,-0.30696 -8.2877,5.21818 -0.30695,8.2877 7.05989,11.97112 z"
     id="terr12" onmouseover="showConsoleTerr(this.id)" onmouseout="cleanConsoleTerr()" />
  <path
       d="m 741.90225,138.72667 6.75293,-4.91123 9.82246,-1.2278 21.48662,-2.76257 -1.53476,4.60428 -10.12941,2.76256 -12.58502,5.83208 -7.67379,-0.92085 z"
       id="terr3-1" onmouseover="showConsoleTerr(this.id)" onmouseout="cleanConsoleTerr()" />
  <path
       d="m 803.90649,193.97798 -12.27807,12.89197 -1.53476,5.83208 9.05508,2.45561 5.21818,-3.06951 7.52031,-7.52032 -0.15347,-4.14385 -3.8369,-3.68342 z"
       id="terr3-2" onmouseover="showConsoleTerr(this.id)" onmouseout="cleanConsoleTerr()" />
  <path
       d="m 824.1653,178.01649 -9.82245,5.52513 1.38128,7.05989 6.13903,3.37647 0.76738,8.59464 1.38128,13.19893 3.223,3.68342 7.82727,-1.07433 5.83208,-4.60428 2.76256,-6.59946 -3.99037,-2.76257 -5.83208,-10.58983 -1.99519,-3.99037 -5.83208,-8.13422 z"
       id="terr3-3" onmouseover="showConsoleTerr(this.id)" onmouseout="cleanConsoleTerr()" />
  <path
       d="m 851.33053,220.98972 13.9663,6.75294 4.75775,11.51069 -0.92086,11.20374 10.43636,3.06951 1.84171,5.52513 -5.83208,2.91605 -6.29251,4.60427 -6.75294,-1.53476 -9.20855,1.38129 -4.60427,5.6786 -0.46043,5.52513 -5.83208,5.52513 -6.75294,5.52513 0.6139,11.05026 -11.97111,5.67861 -12.7385,4.60428 -9.20855,0.6139 -11.05026,-7.21337 -6.59946,-7.52031 1.99518,-15.50106 7.6738,-13.3524 8.59464,-1.53476 8.59465,-0.15348 10.12941,3.37647 8.13422,0.92086 1.08524,-8.70317 -0.62482,-8.17917 -1.17514,-4.61199 3.39509,-4.02762 -6.70798,-2.17499 c 0.55693,-4.55207 -5.13001,-3.67109 -8.42124,-4.88809 l 1.24192,-4.31594 11.98389,-0.19523 4.77449,-6.9019 8.56832,-0.20295 z"
       id="terr3-4" onmouseover="showConsoleTerr(this.id)" onmouseout="cleanConsoleTerr()" />
  <path
     d="m 869.9011,239.09988 5.52513,-7.05989 5.52513,1.84171 4.91123,7.98074 10.74331,0 7.67379,3.06952 10.74331,1.84171 15.96149,-3.99037 3.37647,-8.59465 5.52513,-5.83208 11.66416,-4.60428 10.43636,0.92086 3.68342,-7.98075 12.58502,6.44599 10.43636,-3.06952 9.20855,-6.44599 17.49624,14.11978 17.1893,-4.60427 8.2877,1.84171 0.3069,13.81282 -12.8919,4.60428 3.9903,9.5155 -3.9903,3.99037 -8.2877,-0.6139 -8.5947,-15.34758 -9.8224,3.68342 -17.18932,25.78394 -4.91122,2.76256 9.5155,6.13904 -7.36684,3.68342 -11.66416,-2.76257 -4.29733,4.91123 -4.29732,18.4171 -5.21818,1.53476 -3.68342,-6.44599 -8.9016,-10.74331 -0.6139,-11.05026 -5.83209,-7.05989 -10.74331,-11.05026 -4.29732,-5.52513 -16.57539,-0.92085 -5.21818,0.6139 7.98074,10.43636 9.20856,6.44598 6.44598,11.05027 3.37647,10.43635 -13.19892,-8.59464 -9.82246,-11.05027 -7.36684,-7.36684 -13.19892,-3.06951 -2.45561,-2.45562 -1.84171,-6.13903 -9.82246,-2.76257 z"
     id="terr1" onmouseover="showConsoleTerr(this.id)" onmouseout="cleanConsoleTerr()" />
  <path
     d="m 979.17591,166.96623 12.27806,9.20855 -3.68342,8.9016 6.75294,7.36684 2.14866,7.67379 1.84171,13.81283 -9.5155,5.52513 -11.05026,3.06951 -12.89197,-6.44598 -3.06952,7.98074 -11.05026,-0.6139 -11.05026,4.29732 -5.52513,6.75294 -3.37647,7.98074 -15.34758,4.29733 -10.74331,-2.14866 -8.2877,-3.37647 -9.82245,0.6139 -5.83209,-8.59465 -6.13903,-1.84171 -4.91123,7.36684 -4.29732,-11.05026 -14.73368,-6.75293 12.27807,-10.43636 11.97111,-7.67379 11.35721,-0.92086 -0.6139,-7.67379 -2.45561,-7.98075 7.05989,-5.83208 5.52513,4.29733 -1.22781,12.89197 1.84171,3.37647 9.5155,-1.84172 12.89197,-0.6139 12.58502,-3.06952 12.27807,1.22781 10.43636,-4.60427 -7.67379,-5.21818 2.14866,-11.97112 11.97111,-7.98074 11.05027,1.53476 z"
     id="terr2-1" onmouseover="showConsoleTerr(this.id)" onmouseout="cleanConsoleTerr()" />
  <path
     d="m 981.32457,140.56838 -13.81283,-22.10052 12.58502,-6.13903 -4.29732,-7.6738 -10.74331,-2.45561 -18.4171,0.92085 -19.33796,8.2877 -17.1893,9.20855 -10.43635,11.05026 -4.29733,7.36684 -17.18929,7.36684 -6.75294,8.59465 -1.22781,9.82246 6.13904,4.29732 3.06952,7.05989 5.83208,-3.06952 6.44598,-7.98074 4.91123,-1.84171 4.60428,3.06951 -1.53476,7.05989 2.14866,8.9016 7.36684,-0.30695 4.60427,5.21818 4.60428,0 2.76257,-9.5155 6.75293,-13.81283 -1.2278,-5.52513 -5.21818,-5.83208 3.06951,-7.6738 13.50588,-7.05988 8.9016,-3.99038 -1.53476,-6.75293 4.60427,-5.83209 7.6738,4.60428 -3.99037,10.43636 -7.6738,12.58502 -0.92085,5.83208 6.13903,4.60427 8.9016,1.84171 5.21818,-3.37646 8.9016,0 z"
     id="terr2-2" onmouseover="showConsoleTerr(this.id)" onmouseout="cleanConsoleTerr()" />
  <path
     d="m 978.25505,290.97471 9.82246,4.60428 -3.06952,5.21818 -1.53476,5.52513 9.20855,5.21818 3.68342,3.99037 6.7529,-4.60428 6.446,0.61391 10.7433,0 14.4268,-1.53476 6.4459,-0.61391 -1.5347,6.75294 0,14.42673 0,5.83208 -4.2973,3.68342 -2.1487,11.35722 1.5348,11.35721 7.3668,15.65453 15.3476,19.95186 8.5946,8.2877 -3.3764,4.60428 2.1486,8.59464 5.2182,2.76257 7.6738,4.91123 4.2973,10.1294 5.5252,15.04063 2.7625,12.89198 4.9112,2.76256 10.4364,-3.06952 22.4075,-10.43635 17.1893,-13.81283 15.9615,-11.05026 23.9422,-25.78394 -8.2877,-3.37647 -10.4364,-5.21818 -5.2181,-8.2877 -5.5252,-5.52513 -4.6042,3.68342 -5.8321,10.12941 -7.9808,0.6139 -6.139,-4.91122 -5.5251,-9.82246 -6.446,-11.97111 -7.3669,-7.6738 -5.832,-5.21818 -14.7337,0.61391 -12.2781,-5.83208 -7.6738,-3.06952 -5.2182,0.6139 -7.0599,-6.44598 -5.5251,3.99037 -0.6139,7.05989 -7.9807,4.91122 -4.2974,-3.06951 2.7626,-7.67379 4.9112,-10.43636 7.3669,-0.61391 11.9711,-4.29732 3.9904,-6.44599 2.4556,-8.90159 -0.307,-6.44599 -2.1486,-3.68342 6.139,0 3.9904,-2.45561 -5.5252,-18.72406 -12.8919,-9.20855 -7.0599,8.2877 -14.1198,-1.22781 -9.8225,-3.06952 -9.5155,-4.91122 -12.278,3.37647 -9.5155,0.6139 -10.74333,6.44598 z"
     id="terr14" onmouseover="showConsoleTerr(this.id)" onmouseout="cleanConsoleTerr()" />
  <path
     d="m 1057.7555,269.48809 33.7647,1.53476 12.585,7.98075 0.6139,11.05026 3.0696,12.89197 19.3379,8.59465 7.9808,-3.68343 5.2181,-9.82245 -4.9112,-4.60427 -3.0695,-7.05989 7.9807,-3.99038 4.6043,-6.13903 -7.0599,-9.82245 -0.3069,-9.51551 11.3572,-2.76256 4.6043,4.91123 14.1197,0.6139 17.1893,4.29732 10.7434,4.29733 5.832,7.98074 12.892,0.6139 11.6642,-6.44598 13.1989,0 14.7337,-2.45562 15.0406,0.61391 6.139,0.92085 0.9209,4.29733 -10.1294,8.59464 -16.2685,7.05989 -8.5946,6.44599 11.9711,4.29732 0.9209,5.83208 -6.753,5.21818 -9.2085,6.13904 -0.6139,6.44598 3.6834,0.92086 -29.4674,31.92297 -6.4459,1.53476 -6.753,-2.45561 -4.2973,3.06952 -2.7626,5.21817 8.2877,4.91123 -7.3668,15.34759 -6.753,2.14866 -19.031,-2.45561 -4.6042,-5.52514 1.5347,-7.36684 -10.7433,1.53476 -10.1294,2.76257 -5.5251,-4.91123 -7.9808,-9.82245 -7.9807,-7.36684 -14.7337,2.45561 -15.3476,0.6139 -19.3379,-8.28769 -6.1391,0.6139 -6.139,-6.44599 -6.139,3.68342 0.3069,7.36685 -8.2877,5.21817 -4.2973,-3.68342 7.0599,-18.11015 5.2182,0 13.1989,-4.29732 5.2182,-5.52513 2.4556,-11.35721 -0.6139,-5.52513 -2.4556,-3.99038 5.832,0 4.2974,-2.14866 -5.2182,-19.031 -12.585,-8.59465 z"
     id="terr32" onmouseover="showConsoleTerr(this.id)" onmouseout="cleanConsoleTerr()" />
  <path
     d="m 974.87858,103.42723 43.58712,11.66416 7.9808,6.75294 -11.0503,3.68342 -16.57539,-2.45561 -5.52513,-1.84172 9.82242,12.27807 19.031,3.68342 7.3669,-9.20855 9.8224,-1.2278 3.0696,-10.43636 9.8224,6.13903 15.9615,-4.91123 17.1893,-2.45561 23.9422,-0.6139 3.0695,-5.52513 17.1893,0.6139 11.0503,4.91123 1.2278,-4.91123 -7.3668,-10.436357 -0.6139,-4.297324 14.1197,-6.139034 4.2974,7.366841 9.8224,12.891974 2.4556,6.13903 -1.2278,9.20855 3.0695,6.75294 12.2781,-12.27807 0,-6.13903 -5.5251,-6.13904 -8.5947,-1.84171 -3.0695,-4.29732 0.6139,-4.297324 9.8225,0.613903 4.2973,-8.594647 5.5251,0 20.8727,-1.227807 7.3669,-9.208551 40.5176,-6.752937 -50.954,-10.436358 0,-6.752937 18.4171,0.613904 46.6567,11.664164 33.7647,4.297324 8.5946,7.36684 -6.7529,6.139034 -4.2973,3.069517 10.4363,1.84171 36.8342,1.227807 34.3786,-1.84171 20.8727,11.664164 2.4556,3.683424 24.5562,-9.822458 7.9807,6.752938 7.3669,-7.980744 22.7144,-1.227807 3.6834,4.911227 23.3283,1.227807 15.3476,4.911227 25.1701,0 14.7336,7.36684 31.923,-2.45561 4.2973,3.06951 4.2974,-3.68342 26.3978,-0.6139 25.17,7.98074 19.031,3.68342 25.784,7.98075 9.8224,1.22781 9.2086,6.13903 -1.2278,1.22781 -33.7647,-7.36684 -1.8417,10.43635 22.7144,9.82246 -24.5561,5.52513 -4.9112,9.82245 -7.9808,-5.52513 -15.9615,7.36684 -1.2278,8.59465 15.3476,14.11978 6.7529,7.98074 -4.2973,8.59465 1.8417,8.59465 -0.6139,3.68342 -4.9112,1.2278 -28.8535,-28.23955 -1.8417,-6.75294 1.8417,-9.82245 1.8417,-7.36684 4.2974,-13.50588 -7.9808,-1.84171 -9.2085,-1.22781 1.8417,7.98075 -2.4556,2.45561 -9.2086,-6.75294 -11.0502,6.13904 -2.4557,7.98074 -4.2973,4.29733 -17.8032,-7.36684 -7.9807,1.2278 -7.3669,0 -10.4363,3.68342 -7.9808,7.36684 0.6139,13.50588 -7.9807,9.20855 15.9615,1.22781 12.2781,4.29732 15.3475,2.45561 12.892,11.66417 15.3476,9.20855 -1.8417,5.52513 6.7529,9.20855 4.2973,5.52513 -5.5251,1.22781 -8.5946,-9.20855 -4.9113,-12.89198 -5.5251,-6.75293 -11.6642,-6.13904 -2.4556,8.59465 7.3669,6.13903 7.3668,11.05027 -1.8417,12.27806 -2.4556,8.59465 -4.9112,8.59465 -15.3476,0 -16.5754,-7.98075 -7.3669,-5.52513 -7.3668,-3.68342 -7.3668,1.22781 -15.9615,-1.84171 0,-10.43636 -1.8417,-12.27807 -7.3669,-4.91122 -11.0502,-4.91123 -13.5059,0.6139 -4.9112,3.06952 -5.5252,7.98074 -1.2278,7.36685 10.4364,1.84171 7.3668,1.2278 -10.4363,15.96149 -4.9113,0 -9.2085,-0.6139 -8.5947,2.45561 0,6.13903 -6.139,7.36685 -20.2588,4.91122 -49.7262,-4.91122 -7.3668,-7.36685 -14.1198,-5.52513 -13.5059,-3.06951 -4.9112,-4.29733 4.9112,-12.27806 -7.3668,-3.06952 -14.1198,0 -12.892,-0.6139 -1.8417,14.11977 -10.4363,7.98075 -8.5947,4.29732 0,6.75294 -18.4171,-1.22781 -12.2781,3.68342 -15.3475,-1.2278 -9.8225,6.75293 -14.7337,-1.2278 -5.8321,-7.05989 -10.7433,-4.91123 -16.8823,-4.29732 c -2.7928,-7.2372 -3.9115,-17.40417 -12.892,-13.81283 l -5.5251,8.28769 -11.3572,3.99038 0.3069,9.82245 7.0599,7.67379 -4.2973,5.83209 -14.7337,-3.06952 -11.6641,-8.2877 -2.1487,-6.44598 9.8224,-5.21818 6.1391,-4.91123 -2.7626,-6.44598 -1.5347,-3.68342 -17.1893,1.53475 -6.1391,0.30696 -5.8321,6.75293 -7.9807,0 3.3765,11.35722 2.1486,8.28769 -34.0716,-1.53476 -10.1294,-3.37647 -4.9112,-1.53475 -6.1391,-5.83209 7.0599,-7.05989 -0.6139,-9.82245 -2.4556,-3.06952 0,-13.81282 -9.2086,-2.45562 -15.9614,4.91123 -17.49629,-13.50587 -1.22781,-13.50588 -2.14866,-8.28769 -7.36684,-6.75294 3.99037,-9.5155 -12.27806,-8.9016 4.29732,-14.42673 3.99037,-5.83208 -6.44598,-6.13904 -14.11978,-22.40747 13.19892,-6.13904 z"
     id="terr20" onmouseover="showConsoleTerr(this.id)" onmouseout="cleanConsoleTerr()" />
  <path
       d="m 1681.685,624.42856 4.3409,17.79791 8.2479,6.51143 0,12.15466 1.3022,13.45696 9.116,2.60457 1.7364,12.58876 5.2092,10.85238 5.2091,8.24781 6.9455,7.81372 0.4341,7.81371 -2.6045,13.02286 -6.5115,14.75924 -17.3638,16.49562 c 0,0 -14.3251,11.28647 -16.9297,12.58876 -2.6046,1.30228 -9.5501,13.02286 -9.5501,13.02286 0,0 -9.5501,6.51142 -13.0228,6.51142 -3.4728,0 -23.0071,2.17048 -23.0071,2.17048 l -12.1547,-3.47276 -0.8682,-7.37962 -2.1704,-12.58876 -1.3023,-9.116 -8.2478,4.34095 -6.9455,2.17048 -5.6433,-5.64324 -4.3409,-6.07734 -11.2865,-8.6819 -11.2865,2.60457 -19.1002,5.20914 -21.2707,7.37962 -24.3093,5.20915 -15.1933,-5.20915 6.0773,-9.98419 2.1705,-13.02286 -4.7751,-4.34095 3.9069,-17.7979 2.6046,-15.19334 -1.3023,-9.116 11.2865,-10.85238 30.3866,-10.41828 11.7206,-7.81372 6.0773,-10.85238 5.2092,2.60457 16.0615,-17.7979 7.3796,-3.90686 8.2478,7.37962 6.9456,-3.47276 3.9068,-12.58877 13.0229,-2.17047 11.2864,-2.60457 9.9842,4.77504 -5.2091,9.116 0.4341,9.5501 9.116,6.51143 14.3251,8.6819 9.116,-5.64324 3.9069,-13.02285 2.6046,-19.10019 z"
       id="terr15-1" onmouseover="showConsoleTerr(this.id)" onmouseout="cleanConsoleTerr()" />
  <path
       d="m 1636.9732,816.73276 8.6819,8.24781 -4.7751,9.98419 -9.5501,2.60457 -5.6432,-6.07733 7.3796,-13.02286 z"
       id="terr15-2" onmouseover="showConsoleTerr(this.id)" onmouseout="cleanConsoleTerr()" />
  <path
       d="m 1777.186,818.46914 -15.1934,12.15467 -19.1002,11.28647 -11.7205,7.37962 -1.7364,5.20915 2.6045,2.60457 11.2865,-3.47277 7.8137,-8.6819 15.1934,-6.94552 11.2864,-5.20915 6.5115,-9.98419 z"
       id="terr15-3" onmouseover="showConsoleTerr(this.id)" onmouseout="cleanConsoleTerr()" />
  <path
       d="m 1812.7818,788.95066 -3.4728,7.81372 -8.6819,12.15466 -1.3023,10.85239 0,5.64323 7.3796,-5.20914 8.2478,-9.5501 10.4183,-5.64323 -0.8682,-5.20915 -6.5114,-1.73638 -1.7364,-7.81371 z"
       id="terr15-4" onmouseover="showConsoleTerr(this.id)" onmouseout="cleanConsoleTerr()" />
  <path
       d="m 1621.3458,561.05066 0.4341,-4.77505 9.116,0.43409 3.9068,2.60458 -0.4341,9.116 7.3796,3.47276 13.0229,-6.07734 7.8137,-4.77504 6.9455,6.94552 5.6433,2.60457 17.7979,4.77505 8.6819,5.64324 6.5114,6.07733 4.341,6.51143 0,8.68191 5.2091,4.34095 3.4728,6.94552 12.5887,4.34095 2.1705,3.90686 -6.9455,1.73638 -7.3796,-4.34095 -7.8138,-6.07733 -4.775,-6.51143 -9.5501,-9.116 -6.0773,0.86819 -6.9456,9.98419 -6.9455,3.47276 -1.7364,-3.03867 -4.775,0.4341 -3.9069,-3.90686 -3.4727,-3.47276 -4.7751,3.47276 -5.6432,-3.03866 1.7364,-4.77505 11.2864,-5.20915 -6.9455,-5.20914 -10.4183,-4.34095 -4.775,-4.34095 -6.9455,-1.73638 -10.8524,0.86819 -2.1705,-1.73639 -0.4341,-4.77504 2.6046,-3.03867 1.3023,-5.20914 -9.116,0.86819 z"
       id="terr15-5" onmouseover="showConsoleTerr(this.id)" onmouseout="cleanConsoleTerr()" />
  <path
       d="m 1593.1296,604.02609 -10.4183,8.24781 -7.8137,6.07733 -4.7751,0 0,-6.51143 12.1547,-8.24781 z"
       id="terr15-6" onmouseover="showConsoleTerr(this.id)" onmouseout="cleanConsoleTerr()" />
  <path
       d="m 1566.6498,603.59199 -1.7364,6.51143 -5.6433,0.43409 -7.3796,0.8682 -1.3023,-5.64324 10.8524,-2.17048 z"
       id="terr15-7" onmouseover="showConsoleTerr(this.id)" onmouseout="cleanConsoleTerr()" />
  <path
       d="m 1534.9608,604.46018 -6.5114,5.64324 6.5114,2.17048 6.0773,-4.34096 -2.1704,-2.17047 z"
       id="terr15-8" onmouseover="showConsoleTerr(this.id)" onmouseout="cleanConsoleTerr()" />
  <path
       d="m 1483.7376,594.47599 -1.7364,6.51143 14.3251,2.60457 16.9297,1.30229 1.7364,-3.90686 -9.9842,-4.34095 -11.7205,-2.17048 z"
       id="terr15-9" onmouseover="showConsoleTerr(this.id)" onmouseout="cleanConsoleTerr()" />
  <path
       d="m 1577.9362,541.08228 -4.3409,5.64323 -7.8137,-2.17047 -9.9842,-1.30229 -5.6433,9.116 -0.4341,6.94553 1.3023,3.03866 -6.0773,5.20915 -0.4341,6.51142 2.6046,8.24781 6.5114,1.73638 0,-6.07733 -1.7364,-6.07733 1.3023,-4.34095 4.341,7.37961 5.6432,4.77505 6.5114,-2.17047 -0.4341,-7.37962 -3.4727,-7.37962 3.4727,-4.34095 0.4341,-5.64324 -9.116,5.64324 -4.775,-2.60458 0,-8.24781 4.3409,-0.86819 5.2092,0.86819 7.3796,4.34096 6.9455,-2.60458 4.7751,-5.64323 -3.9069,-3.03867 z"
       id="terr15-10" onmouseover="showConsoleTerr(this.id)" onmouseout="cleanConsoleTerr()" />
  <path
       d="m 1562.3088,495.50227 13.457,-0.43409 12.5887,-3.47276 3.0387,5.20914 -1.3023,5.64324 -2.6046,5.64324 -4.775,-1.73638 -0.4341,6.94552 -6.0773,1.30228 -1.3023,-8.2478 -6.5115,-5.20915 -6.0773,-0.86819 0.4341,-2.60457 z"
       id="terr15-11" onmouseover="showConsoleTerr(this.id)" onmouseout="cleanConsoleTerr()" />
  <path
       d="m 1547.9837,434.72894 -4.7751,5.20914 3.4728,5.20914 -3.0387,5.20915 -1.7364,-4.34095 2.6046,5.64323 3.4728,2.17048 4.775,6.94552 9.5501,0 -6.0773,-6.07733 -3.9069,-4.77505 2.6046,-8.24781 1.3023,-6.07733 -2.6046,-3.47276 z"
       id="terr15-12" onmouseover="showConsoleTerr(this.id)" onmouseout="cleanConsoleTerr()" />
  <path
       d="m 1537.9995,479.00665 -7.3797,13.45696 9.5501,0.86819 2.6046,-10.41829 z"
       id="terr15-13" onmouseover="showConsoleTerr(this.id)" onmouseout="cleanConsoleTerr()" />
  <path
       d="m 1552.3246,466.41789 6.5114,9.116 1.3023,4.34095 7.8137,-5.20914 -8.2478,-3.90686 z"
       id="terr15-14" onmouseover="showConsoleTerr(this.id)" onmouseout="cleanConsoleTerr()" />
  <path
       d="m 1572.7271,471.62704 6.0773,7.81371 6.0774,-1.73638 -2.1705,-5.20914 z"
       id="terr15-15" onmouseover="showConsoleTerr(this.id)" onmouseout="cleanConsoleTerr()" />
  <path
       d="m 1483.7376,593.1737 -1.7364,8.68191 -19.5343,0.4341 -0.8682,-3.90686 5.6432,-6.51143 6.0774,-1.73638 6.5114,5.64324 z"
       id="terr16-1" onmouseover="showConsoleTerr(this.id)" onmouseout="cleanConsoleTerr()" />
  <path
       d="m 1532.7903,507.65694 c -1.7364,0.86819 -11.7205,9.116 -11.7205,9.116 l -7.8138,10.41829 -8.6819,6.94552 -8.2478,3.03867 -3.9068,0 -4.7751,11.28647 1.7364,16.92972 6.5114,5.64324 7.8137,0.86819 7.3797,-2.60457 9.5501,1.30228 4.775,2.17048 3.4728,-8.68191 7.3796,-14.32514 2.1705,-6.94552 4.3409,1.30228 -6.0773,-7.81371 c 0,0 -0.4341,-4.77505 -0.4341,-6.94553 0,-2.17047 1.7364,-11.28647 1.7364,-11.28647 l 2.6045,-5.20915 z"
       id="terr16-2" onmouseover="showConsoleTerr(this.id)" onmouseout="cleanConsoleTerr()" />
  <path
       d="m 1405.1663,514.60246 -0.4341,6.07734 9.116,9.116 8.2478,11.28648 8.6819,12.15466 6.0774,10.41829 11.7205,16.92971 4.7751,7.16257 9.9842,0.21705 2.8216,-9.76714 -0.4341,-7.59667 -11.5035,-8.46486 -11.0694,-14.32514 -7.8138,-8.89895 -8.8989,-9.116 -5.6432,-7.16257 -9.5501,-4.77505 -3.6899,-2.60457 z"
       id="terr16-3" onmouseover="showConsoleTerr(this.id)" onmouseout="cleanConsoleTerr()" />
  <path
       d="m 1456.6066,539.12885 -3.6898,3.47276 -5.4262,0.43409 -2.8216,-8.6819 -5.2092,-4.34095 -4.3409,-9.5501 -2.3875,0.21705 -1.0853,-8.68191 1.9535,-3.90685 -5.2092,-3.47277 -4.775,-5.20914 -3.4728,-2.60457 -2.6046,-6.51143 1.5194,-3.68981 2.8216,-5.20914 1.5193,-3.90686 1.5194,-6.72848 2.1704,-5.20914 -2.6045,-6.29438 -2.8217,-8.89895 -2.8216,-8.24781 -3.2557,-6.72848 -2.1705,-5.20914 2.6046,-7.37962 6.5114,-4.558 3.2557,-0.65114 2.3876,8.24781 3.0386,6.29438 4.341,0.86819 6.9455,-0.4341 5.2092,2.38753 3.9068,6.07733 3.9069,4.1239 4.3409,4.12391 -4.9921,4.99209 -8.8989,3.90686 -2.3875,6.72848 -2.8217,3.03867 -3.9068,-7.81372 -1.9535,6.51143 -1.3022,3.47276 -0.8682,6.51143 -4.1239,6.51143 -2.3876,7.16257 5.4262,5.64324 3.0387,4.77505 2.3875,5.42619 6.0774,6.72847 4.9921,4.9921 2.6045,8.03076 4.558,5.86029 1.0853,5.42619 z"
       id="terr16-4" onmouseover="showConsoleTerr(this.id)" onmouseout="cleanConsoleTerr()" />
  <path
     d="m 1440.5451,467.93723 5.6432,6.72847 4.9921,4.77505 8.6819,0.65114 -0.8682,7.37962 2.6046,5.86029 4.9921,0 2.6046,-3.47276 -0.2171,-7.59667 7.1626,3.68981 3.4728,-4.12391 -1.9535,-4.558 5.8603,-3.90685 1.3023,-5.86029 -0.6511,-7.37962 -2.3876,-9.33305 -5.6432,-5.64324 -7.1626,-5.86028 -3.6898,-3.90686 -5.4262,-7.16257 -4.775,-3.68981 -1.7364,-6.29438 4.558,-5.20914 5.4262,-1.95343 7.1626,-1.73638 4.558,-1.08524 2.3875,-9.33305 6.5114,-11.06943 1.3023,-9.116 -8.6819,-4.1239 -8.2478,-2.82162 -4.558,-1.08524 -9.3331,-1.30229 -6.0773,-1.08523 -3.2557,-2.82162 -6.5114,2.38752 -0.6512,3.03867 -0.217,4.99209 -3.2557,1.30229 -7.3797,0.43409 -1.0852,-2.38752 -4.341,-2.60457 -2.8216,-3.68981 -4.3409,-1.73638 -5.2092,2.82162 -0.4341,4.77504 -0.4341,5.86029 -3.2557,6.72848 3.9069,6.29438 5.2091,4.34095 3.6898,6.51143 2.8217,7.59667 2.1704,5.86028 2.8216,-0.65114 1.7364,6.94552 3.4728,7.37962 4.558,1.51934 7.1626,-0.21705 5.2091,2.38752 3.2557,5.42619 8.899,8.24781 -5.4262,5.86029 -8.4649,2.82162 -2.1705,6.29438 z"
     id="terr17" onmouseover="showConsoleTerr(this.id)" onmouseout="cleanConsoleTerr()" />
  <path
       d="m 1485.0398,378.29656 11.9377,-7.37962 6.7284,-9.33305 7.5967,-0.4341 8.6819,4.558 6.2944,3.25572 4.558,2.38752 -0.4341,8.89895 -0.8682,5.4262 -3.9068,6.72847 -5.8603,4.558 -8.6819,4.9921 -9.116,0 -8.0308,0 -7.3796,6.29438 -4.7751,6.07733 -4.3409,-7.16257 -2.3875,1.08524 3.0386,-10.85238 6.2944,-10.41829 z"
       id="terr18-1" onmouseover="showConsoleTerr(this.id)" onmouseout="cleanConsoleTerr()" />
  <path
       d="m 1481.7841,418.23332 -6.0773,4.558 -3.2557,5.20914 3.9068,6.51143 8.6819,-4.99209 5.4262,-5.20915 z"
       id="terr18-2" onmouseover="showConsoleTerr(this.id)" onmouseout="cleanConsoleTerr()" />
  <path
       d="m 1539.5188,388.49779 -3.9069,7.37962 -1.9534,8.89896 4.558,2.60457 6.5114,-2.82162 1.9535,-6.94553 -1.0853,-6.51142 z"
       id="terr18-3" onmouseover="showConsoleTerr(this.id)" onmouseout="cleanConsoleTerr()" />
  <path
     d="m 1499.582,325.77103 0.6512,16.71267 -2.8216,7.81371 -9.116,1.30229 -7.1626,-3.03867 -8.899,-3.90686 -4.558,-1.95342 -1.7363,9.98419 -1.5194,9.76714 0.4341,8.03076 4.9921,1.30229 14.9763,6.51143 11.7206,-6.94553 7.8137,-9.33305 7.3796,-1.30228 18.6661,10.85238 3.2557,-3.90686 1.3023,-12.58876 -7.8137,-4.77505 -14.7593,-3.47276 -1.7363,-8.89895 -4.1239,-5.20915 -4.7751,-5.86028 z"
     id="terr19" onmouseover="showConsoleTerr(this.id)" onmouseout="cleanConsoleTerr()" />
  <path
     d="m 1491.5513,300.81055 -3.4728,6.07734 0.4341,7.81371 4.341,3.03867 5.8602,0.65114 1.0853,7.16257 2.6046,1.30229 8.2478,10.41829 2.1704,9.55009 15.4104,3.03867 -0.8682,-4.558 -7.1625,-5.42619 -2.3876,-6.29438 -4.558,-6.07734 -4.3409,-3.68981 -3.2557,-3.90685 6.2944,-3.90686 6.2943,-3.03867 3.6898,-1.30228 -0.217,-3.03867 -5.8603,-1.95343 -4.558,-3.03867 -7.1626,2.60457 -3.2557,-0.86819 -2.8216,-3.03866 -3.9069,-0.65115 z"
     id="terr22" onmouseover="showConsoleTerr(this.id)" onmouseout="cleanConsoleTerr()" />
  <path
     d="m 1493.2877,317.52322 -3.4728,4.9921 -8.0308,4.34095 -7.1625,2.60457 -3.0387,-0.65114 1.9534,-17.79791 -0.217,-9.116 0.8682,-13.02286 -0.4341,-8.03076 -1.0853,-3.90685 -6.5114,5.64323 -7.8137,4.558 -6.9455,6.94553 -0.6512,3.68981 -6.0773,0.21704 -8.4649,-3.25571 -8.8989,-1.95343 -4.1239,-3.25571 -6.2944,-3.03867 -4.7751,-3.47276 -1.5193,-2.82162 0.2171,-4.12391 -47.9676,-4.1239 -1.9534,5.64324 0,8.89895 -0.6511,4.77505 12.8058,-0.4341 12.8058,1.73638 12.5887,0.4341 8.0308,2.38752 11.5035,3.03867 5.6433,3.90686 1.3023,7.16257 -1.0853,6.72848 -2.6046,6.29438 -2.1704,4.1239 0,2.38753 6.0773,0.43409 6.9455,1.08524 5.2092,0.86819 5.2091,-2.17048 3.9069,1.95343 1.5193,4.12391 0.8682,8.24781 -0.2171,8.6819 0,5.64324 -3.2557,7.81371 2.8217,3.03867 16.9297,1.95343 0,-8.89895 2.6045,-19.75134 20.6196,9.5501 9.5501,-1.51934 2.8216,-7.81371 -1.3023,-17.36381 -0.6512,-6.51143 z"
     id="terr23" onmouseover="showConsoleTerr(this.id)" onmouseout="cleanConsoleTerr()" />
  <path
     d="m 1498.7138,251.10665 0,-13.674 -1.9534,-9.116 -9.333,-6.72848 -8.899,-3.47276 -13.2399,0.65114 -5.4262,2.38753 -5.6432,8.6819 -1.5193,7.37962 18.0149,3.03867 -9.9842,16.27857 -13.674,-1.95343 -9.5501,3.03867 0.2171,6.72847 -6.2944,7.16257 -21.0536,5.4262 -0.2171,2.82161 6.2944,6.29439 6.2944,3.68981 4.1239,3.03866 9.333,2.38753 8.4649,2.82161 5.8603,-0.65114 0.6511,-3.68981 7.5967,-7.16257 7.1626,-3.47276 6.5114,-6.29438 1.5193,12.80581 -0.6511,12.58876 0.6511,8.89895 -1.3023,9.116 -1.3023,8.46486 2.6046,0.65114 15.4104,-6.07733 3.9069,-5.64324 -4.7751,-3.25571 -0.4341,-7.37962 4.1239,-6.51143 1.5194,-4.9921 -1.7364,-2.38752 9.333,-10.20124 6.0774,-8.6819 0.217,-8.46486 -8.0308,-2.17048 -4.775,-1.08524 -0.4341,-7.16257 z"
     id="terr21" onmouseover="showConsoleTerr(this.id)" onmouseout="cleanConsoleTerr()" />
  <path
     d="m 1253.233,304.50036 16.0615,9.116 12.1547,7.81372 0.8682,10.85238 3.9068,10.41829 9.5501,11.72057 2.6046,4.77505 -2.6046,6.07733 -14.3251,0 -17.3638,-6.51143 -9.116,-1.73638 -9.116,8.24781 -6.9456,7.81371 -1.7363,5.20915 4.775,4.34095 5.2092,6.07733 -3.0387,4.77505 -8.2478,3.90686 -10.4183,-1.30229 -0.8682,-6.07733 3.0387,-5.64324 -3.4728,-0.86819 -5.2091,3.47276 -11.7206,1.30229 -12.5888,0 -3.0386,-3.90686 8.0307,-15.84448 -8.6819,-4.558 3.2557,-5.64324 4.341,-2.38752 5.6432,1.51933 7.1626,-0.65114 29.0844,-32.34009 -2.6046,-0.65115 -0.217,-7.16257 15.8444,-9.98419 z"
     id="terr31" onmouseover="showConsoleTerr(this.id)" onmouseout="cleanConsoleTerr()" />
  <path
     d="m 1271.465,407.59799 -4.9921,5.42619 -4.341,-4.12391 -8.6819,4.34095 -9.116,-1.51933 -3.4727,-4.558 5.8603,-4.34095 -8.0308,-6.94553 5.2091,-1.95342 4.1239,-6.07734 -10.6353,-9.33305 0.8682,-4.99209 16.7127,-16.27857 21.2706,6.29438 -3.2557,6.51143 1.5194,7.37962 4.1239,3.90685 10.6353,1.73638 7.8137,0 7.1626,1.51934 8.2478,5.64324 3.6898,4.558 -0.8682,4.558 -3.4728,4.99209 -10.8523,5.20914 -8.899,0.65115 -11.5035,0.21704 z"
     id="terr30" onmouseover="showConsoleTerr(this.id)" onmouseout="cleanConsoleTerr()" />
  <path
     d="m 1276.24,363.10322 4.9921,1.73638 14.1081,0.21705 1.5194,-2.60457 10.8523,6.07733 11.2865,2.82162 9.3331,2.17048 -3.4728,6.72847 0.217,7.59667 1.5194,10.63534 -1.3023,8.46485 -2.6046,10.41829 -1.5193,8.24781 -5.4262,5.42619 -5.4262,-0.4341 -3.0387,-6.72847 -0.6511,-9.5501 2.3875,-7.16257 2.6046,-2.82162 3.9069,-4.558 0.6511,-4.99209 -3.6898,-4.77505 -7.3796,-4.77505 -6.9456,-2.82162 -8.4648,0 -11.0694,-1.30228 -4.341,-4.12391 -1.3023,-7.59667 z"
     id="terr29" onmouseover="showConsoleTerr(this.id)" onmouseout="cleanConsoleTerr()" />
  <path
     d="m 1328.3315,373.52151 14.1081,5.86028 2.1704,-5.42619 4.7751,-6.29438 6.2944,-2.38752 5.2091,1.73638 -1.5193,5.42619 -2.1705,3.25571 -6.5114,-0.86819 -1.7364,3.90686 -0.4341,4.12391 2.6046,3.25571 2.3875,5.20914 2.1705,7.37962 -0.8682,4.77505 -0.2171,2.17048 -6.0773,-0.21705 -6.7285,-0.65114 -6.5114,-3.90686 -8.2478,-1.95343 -1.5194,-8.24781 -0.6511,-10.41829 z"
     id="terr28" onmouseover="showConsoleTerr(this.id)" onmouseout="cleanConsoleTerr()" />
  <path
     d="m 1357.1988,374.60675 9.116,1.08523 11.9376,-4.99209 4.9921,1.30229 -7.1626,8.46485 0.2171,6.07734 0.6511,8.46485 0.8682,4.9921 2.6046,5.86028 -4.7751,6.29439 -4.3409,-5.42619 -1.3023,-4.12391 -6.0773,1.08524 -6.2944,2.60457 -3.2557,-0.86819 1.0852,-5.86029 -0.217,-3.90685 -1.7364,-5.42619 -4.9921,-7.16258 -0.4341,-3.68981 2.3875,-4.558 z"
     id="terr25" onmouseover="showConsoleTerr(this.id)" onmouseout="cleanConsoleTerr()" />
  <path
     d="m 1326.8121,398.69903 8.2478,1.95343 6.0774,3.90686 5.2091,1.30228 -6.0773,4.9921 -5.8603,10.20124 -4.9921,10.85238 -5.6432,12.80581 -8.6819,11.93762 -3.4728,-0.65114 2.6046,-6.07734 4.3409,-8.24781 -5.2091,2.60457 -3.0387,6.51143 -1.5193,9.76715 0.4341,6.72847 -6.7285,0 -9.7671,-0.43409 c 0,0 -0.8682,-7.37962 -0.8682,-8.24781 0,-0.86819 2.3875,-11.50353 2.3875,-11.50353 l -0.6512,-6.94552 -5.2091,-0.86819 -1.3023,5.42619 -4.775,10.20124 -4.7751,3.47276 -3.6898,-8.89895 -4.3409,-8.46486 -1.7364,-5.86029 -4.1239,-6.94552 0.4341,-7.16257 1.5193,-7.37962 0.6511,-1.30229 4.9921,-4.558 9.5501,2.60457 20.4025,-1.08523 9.7672,-4.77505 -3.2558,7.16257 -1.0852,4.34095 0.8682,7.59667 3.2557,7.37962 4.9921,0.21705 6.0773,-6.07734 2.8217,-14.10809 2.1704,-10.41829 z"
     id="terr26" onmouseover="showConsoleTerr(this.id)" onmouseout="cleanConsoleTerr()" />
  <path
       d="m 1288.1777,438.85284 -0.4341,4.12391 -5.6433,11.93762 -4.558,3.47276 7.1626,15.19333 3.9068,11.50353 4.124,12.15466 2.3875,0.8682 11.5035,-8.03077 0,-7.81371 2.1705,-9.33305 0.6511,-5.64324 -16.2786,-0.65114 -1.0852,-8.24781 2.1705,-10.41829 -0.8682,-8.6819 z"
       id="terr27-1" onmouseover="showConsoleTerr(this.id)" onmouseout="cleanConsoleTerr()" />
  <path
       d="m 1310.3165,490.51018 2.8216,0 3.9069,8.03076 2.1705,8.24781 -0.2171,4.9921 -6.9455,-3.90686 -2.6046,-6.29438 0.6512,-6.72848 z"
       id="terr27-2" onmouseover="showConsoleTerr(this.id)" onmouseout="cleanConsoleTerr()" />
  <path
       d="m 1262.1319,510.47856 -4.558,1.73638 1.3023,5.64324 5.6433,0.86819 4.3409,0.43409 -3.6898,-5.86028 z"
       id="terr27-3" onmouseover="showConsoleTerr(this.id)" onmouseout="cleanConsoleTerr()" />
  <path
     d="m 1423.6154,476.83618 -2.3876,-10.20124 -6.9455,-14.1081 -4.775,-11.93762 -3.2557,-1.95342 -4.9921,8.6819 -4.341,-3.90686 -2.6046,-7.81371 -0.8681,-4.558 -5.6433,-3.03867 -1.9534,-6.29438 -5.2092,-4.77505 -4.775,-5.20914 4.775,-6.07733 -2.8216,-6.94553 -1.9534,-18.01495 7.3796,-8.24781 -4.1239,-1.73638 -13.0228,4.77505 -8.2479,-1.51934 3.0387,-6.51143 -5.2091,-2.82161 -6.7285,2.60457 -4.341,6.29438 -1.7363,5.64324 -15.1934,-5.20915 -20.4025,-5.86028 -9.9841,-5.42619 1.0852,-4.12391 -12.1547,-16.06152 -3.4727,-10.41829 -0.8682,-11.50352 -27.9992,-16.27857 -0.8682,-4.558 -11.9376,-3.47277 8.4649,-6.72847 16.7126,-6.72848 9.5501,-8.89895 -0.6511,-4.9921 -4.341,-0.65114 1.0853,-6.72848 7.8137,-3.25571 10.2012,-8.68191 3.0387,-15.19333 26.9139,1.30229 6.5114,3.25571 -4.775,12.15467 4.775,4.1239 13.8911,3.03867 13.891,5.42619 8.899,8.68191 -2.3875,5.64323 0,13.23991 13.674,-0.65114 12.3717,2.17047 13.0228,0 19.5343,6.51143 5.4262,3.68981 0.6512,8.24781 -2.8217,10.20124 -3.9068,7.37962 8.4648,0.43409 7.3797,1.95343 4.992,0.21705 2.6046,-1.95343 4.7751,1.51933 2.8216,11.72058 -0.6512,10.20123 -0.217,7.16258 -3.0387,5.64323 -6.5114,1.95343 -2.1705,8.46486 -9.5501,1.95343 -1.5193,-3.47276 -4.1239,-1.95343 -2.8216,-3.03867 -4.9921,-2.60457 -4.341,2.82162 -1.5193,8.24781 0,2.38752 -3.2557,7.16257 4.3409,5.42619 5.2092,5.64324 4.3409,7.81372 4.7751,11.06943 -6.7285,5.20914 -3.2557,7.37962 6.9455,16.06152 6.9455,19.31724 z"
     id="terr24" onmouseover="showConsoleTerr(this.id)" onmouseout="cleanConsoleTerr()" />
  <path
       d="m 1499.1479,251.10665 15.1934,1.51933 7.5966,-1.51933 15.4104,9.55009 15.8445,8.24781 -2.3875,5.20915 -2.6046,5.64323 5.6432,5.64324 0,3.03867 -7.8137,-3.47276 -1.7363,4.558 -2.8217,6.72847 10.2013,4.34096 4.3409,6.07733 8.6819,3.90686 0,8.03076 -5.8603,7.16257 -3.2557,3.47276 -3.0386,-3.25571 -1.5194,-7.59667 -1.7364,-6.72847 -3.2557,-3.68981 -5.4262,-3.25572 -6.0773,-3.03867 -3.2557,-2.60457 -2.6046,-7.81371 -5.6432,1.30228 -6.5114,1.95343 -3.9069,-3.47276 -1.3023,-5.42619 -1.0852,-7.37962 -3.0387,-4.1239 0.6511,-8.46486 -13.4569,-3.47276 0,-7.16257 z"
       id="terr13-1" onmouseover="showConsoleTerr(this.id)" onmouseout="cleanConsoleTerr()" />
  <path
       d="m 1602.0285,256.96693 -0.8682,9.5501 2.3876,11.72057 6.0773,-6.29438 4.775,2.60457 5.4262,1.51933 4.1239,-6.07733 0.4341,-4.34095 -5.6432,-1.51933 -8.6819,-2.17048 -5.6433,-6.07733 z"
       id="terr13-2" onmouseover="showConsoleTerr(this.id)" onmouseout="cleanConsoleTerr()" />
  <path
       d="m 1611.5786,282.14446 -0.4341,8.24781 2.6046,6.07733 1.7364,4.34095 -2.6046,4.77505 -8.0308,5.20914 c 0,0 -3.0386,4.558 -3.9068,4.558 -0.8682,0 -9.5501,1.51934 -9.5501,1.51934 l -8.899,0.65114 -3.0386,4.12391 2.6045,4.99209 8.2478,-0.21705 4.124,-3.68981 6.9455,3.25572 7.5966,0.21705 5.4262,-3.90686 7.5967,-4.558 3.4728,-4.558 -2.6046,-9.116 -0.8682,-1.73638 2.1705,-3.03867 1.7364,-3.47276 -3.9069,-2.60457 -3.4728,-3.25572 -0.6511,-3.68981 z"
       id="terr13-3" onmouseover="showConsoleTerr(this.id)" onmouseout="cleanConsoleTerr()" />
  <path
       d="m 1579.8897,329.67789 c 0,0 -3.2558,4.9921 -3.2558,5.86029 0,0.86819 4.341,9.33305 4.341,9.33305 l 2.6046,-7.37962 z"
       id="terr13-4" onmouseover="showConsoleTerr(this.id)" onmouseout="cleanConsoleTerr()" />
  <path
       d="m 1593.7807,327.29037 -3.2557,4.1239 5.6432,1.73638 1.3023,-3.47276 z"
       id="terr13-5" />
  </svg>
