<?xml version="1.0" encoding="UTF-8" standalone="no"?>
<!-- Created with Inkscape (http://www.inkscape.org/) -->

<svg
   xmlns:dc="http://purl.org/dc/elements/1.1/"
   xmlns:cc="http://creativecommons.org/ns#"
   xmlns:rdf="http://www.w3.org/1999/02/22-rdf-syntax-ns#"
   xmlns:svg="http://www.w3.org/2000/svg"
   xmlns="http://www.w3.org/2000/svg"
   version="1.1"
   width="100%"
   height="100%"
   viewBox="0 0 1881 950"
   id="svg3099">
  <metadata
     id="metadata3168">
    <rdf:RDF>
      <cc:Work
         rdf:about="">
        <dc:format>image/svg+xml</dc:format>
        <dc:type
           rdf:resource="http://purl.org/dc/dcmitype/StillImage" />
        <dc:title></dc:title>
      </cc:Work>
    </rdf:RDF>
  </metadata>
  <defs
     id="defs3166" />
  <path
     d="m 120,157 -68.4,32 -1.3,-3 33.8,-17 -16,-1 12.3,-13 -5.5,-2 0,-5 34.1,-5 1,-6 8,-3 -29.6,3 0,-7 35.6,-6 4,-2 -8,-6 13,-3 54,-13 69,11 38,-5 34,5 13,3 -1,5 7,0 27,-3 42,3 6,1 16,-6 5,-14.3 4,-1.8 5,1.8 0,11.3 7,-4 4,6 -4,8 -13,10 0,6 -14,2 -21,10 -13,8 4,3 0,3 -15,1 -1,9 17,12 22,9 -2,23 9,0 20,-25 11,-9 5,-17 6,-1 3,-10 17,-9 2,4 6,4 9,9 -1,7 9,4 13,-10 5,6 -2,12 6,15 8,0 5,7 -2,6 -4,5 -29,7 -16,0 -23,12 18,-3 -1,6 -5,8 -16,13 -25,11 -1,9 -18,5 -10,9 -10,9 0,11 -17,14 -22,13 -6,11 -2,16 2,8 1,7 -6,4 -7,-10 -1,-19 -3,-6 -9,3 -7,0 0,-8 -6,2 0,7 -23,-2 -3,-26 -13,-10 -46,1 2,15 -5,18 -22,-9 1,-14 3,-15 1,-34 42,2 -1,18 38,0 -3,-15 5,-25 -46,0 -7,-5 -4,-12 -5,-12 -5,-3 -8,5 0,22 -6,20 -46,0 -11,1 -4,-5 14,-21 10,-11 8,-3 1,-13 -10,-10 2,-14 6,-5 0,-11 -6,-9 -10,-3 -17,-11 -17,-1 -21,5 z"
     id="terr5" />
  <path
     d="m 368,498 4,-4 -10,-5 -10,1 -8,5 -6,-7 -7,-11 2,-10 -1,-17 -11,-3 -19,2 -1,-1 8,-7 0,-9 6,-8 6,-9 -4,-5 -14,3 -2,8 -1,5 -21,3 -14,-5 -5,-7 2,-24 1,-18 9,-8 15,-8 13,-7 5,-1 -2,-25 -13,-11 -46,2 2,14 -6,18 -21,-8 1,-17 3,-14 0,-33 43,2 -1,18 38,2 -3,-16 4,-25 -46,0 -6,-5 -9,-26 -5,-1 -8,6 0,21 -7,20 -57,0 -3,-4 -16,31 22,31 1,12 0,8 15,41 3,2 2,-6 -14,-39 0,-11 12,6 3,19 21,36 8,11 -8,6 10,8 9,8 19,8 18,5 7,-6 14,16 7,7 12,-6 5,3 2,13 10,15 11,12 10,6 7,-3 -5,-4 4,-6 7,0 6,2 z"
     id="terr4" />
  <path
     d="m 525,533 -15,0 -11,4 -18,7 -13,-10 2,-13 -6,-3 -12,11 -3,16 -13,0 -11,-8 -9,2 -3,9 4,23 -6,3 -5,-6 -6,3 0,8 -7,13 2,9 20,23 7,-1 13,-14 1,9 1,15 12,2 6,-4 -1,8 13,0 25,36 -1,7 5,6 9,16 7,-3 3,11 -2,19 -7,7 0,12 -10,13 13,16 15,-2 9,-12 0,-9 10,-6 1,-13 7,-5 -1,-14 5,-6 9,-8 14,-3 13,-9 2,-14 4,-16 4,-24 10,-17 8,-10 2,-11 -1,-12 -7,-6 -8,0 -5,-5 -5,-6 -4,-3 -15,2 -9,-4 -10,-4 -8,-8 -10,7 -7,-3 -3,-11 -3,-8 z"
     id="terr7" />
  <path
     d="m 524,533 -1,-10 -9,-9 -16,-3 -9,-3 -14,-9 -10,-8 5,-7 0,-1 -10,-1 -22,0 -24,-15 -4,8 -1,7 -7,1 3,-8 -7,-3 -13,6 -2,5 -4,7 -8,3 -3,6 -3,5 6,4 0,7 2,11 -12,11 -7,12 -5,11 -2,14 2,14 10,10 9,16 5,15 5,13 10,9 6,1 11,6 6,8 12,14 1,16 -1,26 -1,28 3,35 3,23 4,5 5,4 9,11 0,11 -1,8 -5,4 3,7 6,4 5,9 8,14 7,0 9,2 5,-1 -1,-5 1,-13 -4,-13 -9,-8 10,-8 4,-6 -3,-8 -2,-7 6,-4 5,-5 4,-9 1,-6 8,6 8,0 3,-11 -6,-12 -12,-14 10,-13 0,-13 6,-6 4,-19 -5,-11 -6,3 -14,-23 1,-7 -25,-35 -13,0 0,-9 -6,5 -12,-4 0,-22 -13,13 -7,3 -20,-23 -2,-9 6,-14 0,-9 5,-2 6,4 7,-1 -5,-23 3,-9 10,-2 9,7 14,1 3,-17 13,-10 4,3 -1,13 14,9 29,-10 z"
     id="terr6-1" />
  <path
     d="m 488,898 -5,-2 2,-2 8,-1 13,12 -1,3 -10,-2 -7,-1 -6,-5 2,-2 z"
     id="terr6-2" />
  <path
     d="m 920,403 13,-1 7,9 14,1 9,4 9,16 -3,18 -5,5 -4,-2 7,19 3,7 -10,4 -12,1 -11,10 -13,8 -3,18 0,12 5,4 11,-1 3,4 -1,8 -6,3 -3,18 -25,15 2,4 27,-2 8,5 6,3 8,1 3,10 4,13 1,8 7,5 19,-1 2,7 18,6 0,-12 -10,-7 -1,-6 1,-6 10,0 10,3 10,11 0,14 10,6 0,-8 10,-6 10,-4 10,3 0,19 -10,11 -10,5 -10,7 -10,8 0,12 10,6 0,8 -10,13 -10,0 0,5 0,6 0,5 -10,5 0,10 -16,13 -11,8 -9,3 -3,-4 -23,6 -4,0 4,-9 -4,-5 -4,-5 -6,-3 -5,-13 -5,-15 -5,-13 9,4 -5,-10 -6,-7 -7,-14 -5,-17 -4,-9 1,-11 5,-19 4,-13 -2,-18 -3,-8 -5,-12 3,-18 -11,7 -8,-7 -2,-9 5,-8 5,-13 -4,-3 -9,-7 3,-12 9,-3 14,-5 1,-10 8,-17 0,-7 -3,-10 -2,-4 9,-8 9,-13 1,-6 -1,-7 -8,-10 z"
     id="terr9-1" />
  <path
     d="m 1120,636 0,8 -10,6 -10,6 -10,4 10,11 0,7 -10,12 0,15 0,7 10,5 10,-2 0,-20 10,-21 0,-14 10,-16 z"
     id="terr9-2" />
  <path
     d="m 970,478 40,-1 20,4 0,14 10,2 0,13 10,6 10,11 10,7 10,-2 0,13 0,12 -10,10 0,4 0,9 0,3 0,47 -10,-3 -10,3 -10,8 0,7 -10,-6 0,-14 -10,-12 -10,-2 -10,0 -1,6 1,7 10,6 0,12 -19,-7 -2,-7 -18,2 -7,-6 -1,-9 -7,-21 -8,-1 -15,-8 -27,2 -1,-5 25,-14 3,-18 6,-3 1,-8 -3,-5 -12,1 -4,-3 3,-30 14,-8 10,-10 12,-1 z"
     id="terr11" />
  <path
     d="m 978,345 7,1 14,4 21,-1 10,10 0,9 0,-3 0,2 10,34 10,24 20,20 10,15 10,11 0,11 10,0 10,-5 10,-1 10,1 0,12 0,11 -20,32 -10,3 0,9 -20,13 0,-13 0,-13 -10,3 -20,-18 -10,-6 0,-14 -10,-1 0,-14 -20,-4 -40,1 -11,-25 4,1 6,-4 3,-19 9,-24 -3,-14 -2,-21 z"
     id="terr10" />
  <path
     d="m 919,403 -10,-4 -9,-6 -7,8 -12,3 -3,9 -20,10 -2,24 -5,4 -10,-2 -5,0 -4,7 5,5 14,1 3,7 -6,5 -12,1 -8,5 0,8 6,12 2,10 9,-2 15,0 7,14 8,-1 6,-1 3,-12 22,-7 1,-10 8,-16 1,-8 -6,-14 9,-9 9,-11 2,-8 -2,-5 -8,-11 z"
     id="terr8" />
  <path
     d="m 835,510 -5,4 -13,0 -27,2 -12,3 -7,-4 -10,-8 -8,-9 -9,-10 1,-7 -10,-6 -5,-10 3,-13 3,-9 7,-11 -6,-11 -2,-7 1,-8 9,-14 17,-26 14,-9 4,-7 -3,-8 12,-12 12,-4 16,-3 11,-1 12,-6 7,-3 10,-4 8,5 16,-3 9,-5 1,7 0,8 5,10 15,5 6,2 0,7 10,5 13,5 6,-5 2,-6 0,-8 6,-2 8,4 17,7 -3,27 2,20 3,15 -9,24 -9,-16 -9,-3 -14,-2 -7,-8 -14,1 -11,-4 -8,-6 -7,8 -11,3 -4,9 -20,10 -2,24 -5,4 -15,-2 -4,7 5,5 14,1 3,8 -6,5 -12,0 -8,5 0,8 7,12 z"
     id="terr12" />
  <path
     d="m 742,139 7,-5 9,-1 22,-3 -2,4 -10,3 -12,6 -8,-1 z"
     id="terr3-1" />
  <path
     d="m 804,194 -12,13 -2,6 9,2 5,-3 8,-7 0,-5 -4,-3 z"
     id="terr3-2" />
  <path
     d="m 824,178 -10,6 2,7 6,3 1,9 1,13 3,3 8,-1 6,-4 3,-7 -4,-3 -6,-10 -2,-4 -6,-8 z"
     id="terr3-3" />
  <path
     d="m 851,221 14,7 5,11 -1,11 11,4 1,5 -5,3 -7,5 -6,-2 -10,1 -4,6 -1,6 -6,5 -6,6 0,11 -12,5 -12,5 -10,1 -11,-8 -6,-7 2,-16 7,-13 9,-2 9,0 10,4 8,1 1,-9 -1,-8 -1,-5 4,-4 -7,-2 c 0,-5 -5,-4 -9,-5 l 2,-4 12,0 4,-7 9,-1 z"
     id="terr3-4" />
  <path
     d="m 870,239 5,-7 6,2 5,8 11,0 7,3 11,2 16,-4 3,-9 6,-6 12,-4 10,1 4,-8 12,6 11,-3 9,-6 22,14 10,-5 10,2 0,14 -10,4 0,10 0,4 -10,-1 -10,-15 -10,4 -16,25 -5,3 10,6 -7,4 -12,-3 -4,5 -5,19 -5,1 -4,-6 -8,-11 -1,-11 -6,-7 -11,-11 -4,-6 -16,-1 -6,1 8,10 9,7 7,11 3,10 -13,-8 -10,-11 -7,-8 -13,-3 -3,-2 -2,-6 -9,-3 z"
     id="terr1" />
  <path
     d="m 979,167 12,9 -3,9 7,7 2,8 2,14 -10,5 -11,4 -13,-7 -3,8 -11,-1 -11,5 -6,6 -3,8 -15,5 -11,-2 -8,-4 -10,1 -6,-9 -6,-2 -5,8 -4,-11 -15,-7 12,-10 12,-8 11,-1 0,-8 -3,-8 7,-6 6,5 -1,13 2,3 9,-2 13,0 13,-3 12,1 10,-5 -7,-5 2,-12 12,-8 11,2 z"
     id="terr2-1" />
  <path
     d="m 981,141 -13,-23 12,-6 -4,-7 -11,-3 -18,1 -20,8 -17,10 -10,11 -5,7 -17,7 -7,9 -1,10 6,4 3,7 6,-3 7,-8 5,-2 4,3 -1,7 2,9 7,0 5,5 4,0 3,-9 7,-14 -1,-6 -6,-5 4,-8 13,-7 9,-4 -2,-7 5,-6 8,5 -4,10 -8,13 -1,6 6,4 9,2 5,-3 9,0 z"
     id="terr2-2" />
  <path
     d="m 978,291 10,5 -3,5 -2,5 10,6 3,4 4,-5 10,1 10,0 20,-2 0,-1 0,7 0,15 0,5 0,4 -10,11 10,12 0,15 20,20 10,9 -10,4 10,9 0,3 10,5 0,10 10,15 0,13 10,2 10,-3 20,-10 20,-14 10,-11 30,-26 -10,-3 -10,-5 -10,-9 0,-5 -10,4 0,10 -10,0 -10,-5 0,-9 -10,-12 -10,-8 0,-5 -20,0 -10,-6 -10,-3 0,1 -10,-6 -10,4 0,7 0,5 -10,-4 0,-7 10,-11 10,0 10,-5 0,-6 0,-9 0,-6 0,-4 10,0 0,-3 0,-18 -20,-9 0,8 -20,-1 -10,-3 -10,-5 -10,3 -10,1 -10,6 z"
     id="terr14" />
  <path
     d="m 1060,269 30,2 10,8 10,11 0,13 20,9 10,-4 0,-10 0,-5 -10,-7 10,-4 10,-6 -10,-10 0,-9 10,-3 0,5 20,1 20,4 10,4 0,8 10,1 20,-7 10,0 10,-2 20,1 10,0 0,5 -10,8 -20,7 -10,7 10,4 0,6 0,5 -10,6 0,7 0,1 -30,32 0,1 -10,-2 -10,3 0,5 10,5 -10,15 0,2 -20,-2 -10,-6 0,-7 -10,2 -10,2 0,-5 -10,-9 -10,-8 -10,3 -20,0 -20,-8 0,1 -10,-7 -10,4 0,7 0,6 -10,-4 10,-18 0,0 20,-5 0,-5 0,-11 0,-6 0,-4 10,0 0,-2 0,-19 -20,-9 z"
     id="terr32" />
  <path
     d="m 975,103 45,12 10,7 -10,4 -21,-3 -6,-2 7,13 20,3 10,-9 10,-1 0,-11 10,6 20,-4 20,-3 20,-1 0,-5 20,1 10,4 0,-4 -10,-10.9 0,-4.3 20,-6.1 0,7.4 10,12.9 10,6 -10,9 10,7 10,-12 0,-6 -10,-7 0,-1 -10,-5 0,-3.9 10,0.6 10,-8.6 0,0 20,-1.2 10,-9.3 40,-6.7 -50,-10.4 0,-6.8 20,0.6 50,11.7 30,4.3 10,7.3 -10,6.2 0,3.1 10,1.8 30,1.2 40,-1.8 20,11.6 0,3.3 30,-9.4 0,6.4 10,-7.6 20,-1.3 10,5 20,1.2 20,4.7 20,0 20,8 30,-3 0,3 10,-4 20,0 30,8 20,4 20,8 10,1 10,6 0,1 -30,-7 0,10 20,10 -30,6 0,9 -10,-5 -20,7 0,9 20,14 10,8 -10,8 0,9 0,4 0,1 -30,-28 0,-7 0,-10 0,-7 0,-14 0,-2 -10,-1 0,8 0,3 -10,-7 -10,6 -10,8 0,4 -20,-7 -10,1 0,0 -10,4 -10,7 0,14 -10,9 20,1 10,4 10,3 20,12 10,9 0,5 10,10 0,5 0,1 -10,-9 -10,-13 0,-7 -10,-6 -10,9 10,6 10,11 0,12 -10,9 0,9 -20,0 -10,-8 -10,-6 -10,-4 -10,2 -10,-2 0,-11 0,-12 -10,-5 -10,-5 -10,1 -10,3 -10,8 0,7 10,2 10,1 -10,16 0,0 -10,0 -10,2 0,6 -10,8 -20,5 -50,-5 -10,-8 -10,-5 -10,-3 -10,-5 10,-12 -10,-3 -10,0 -20,-1 0,15 -10,8 -10,4 0,7 -20,-2 -10,4 -10,-1 -10,7 -20,-2 0,-7 -20,-5 -10,-4 c 0,-7 -10,-17 -20,-14 l 0,9 -10,4 0,9 10,8 -10,6 -10,-3 -20,-9 0,-6 10,-5 10,-5 0,-7 -10,-3 -10,1 -10,1 0,6 -10,0 0,12 0,8 -30,-2 -10,-3 -10,-1 0,-6 0,-7 0,-10 0,-3 0,-14 -10,-2 -10,4 -22,-13 -1,-14 -2,-8 -8,-7 4,-9 -12,-9 4,-14 4,-6 -6,-6 -14,-23 13,-6 z"
     id="terr20" />
  <path
     d="m 1680,624 10,18 0,7 0,12 10,13 10,3 0,13 0,10 10,9 0,7 0,8 0,13 0,15 -20,17 c 0,0 -20,11 -20,12 0,1 -10,13 -10,13 0,0 -10,7 -10,7 0,0 -20,2 -20,2 l -20,-4 0,-7 0,-13 0,-9 -10,5 -10,2 0,-6 -10,-6 -10,-9 -10,3 -20,5 -20,8 -20,5 -20,-5 10,-10 0,-13 0,-5 0,-18 0,-15 0,-9 10,-11 30,-10 10,-8 10,-11 0,3 20,-18 10,-4 10,7 0,-3 10,-13 10,-2 10,-2 10,4 0,10 0,9 10,7 10,8 10,-5 0,-13 10,-19 z"
     id="terr15-1" />
  <path
     d="m 1640,817 10,8 -10,10 -10,3 0,-7 0,-13 z"
     id="terr15-2" />
  <path
     d="m 1780,818 -20,13 -20,11 -10,7 0,5 0,3 10,-3 10,-9 20,-7 10,-5 0,-10 z"
     id="terr15-3" />
  <path
     d="m 1810,789 0,8 -10,12 0,11 0,5 10,-5 10,-9 10,-6 0,-5 -10,-2 0,-8 z"
     id="terr15-4" />
  <path
     d="m 1620,561 0,-5 10,1 10,2 -10,9 10,4 20,-6 0,-5 10,7 10,3 10,4 10,6 10,6 0,7 0,8 10,5 0,7 10,4 10,4 -10,2 -10,-5 -10,-6 0,-6 -10,-9 -10,0 0,10 -10,4 0,-3 -10,0 0,-4 0,-3 -10,3 0,-3 0,-4 10,-6 -10,-5 -10,-4 0,-5 -10,-1 -10,1 0,-2 0,-5 0,-3 0,-5 -10,1 z"
     id="terr15-5" />
  <path
     d="m 1590,604 -10,8 0,6 -10,0 0,-6 10,-8 z"
     id="terr15-6" />
  <path
     d="m 1570,604 0,6 -10,1 -10,0 0,-5 10,-2 z"
     id="terr15-7" />
  <path
     d="m 1540,604 -10,6 10,2 0,-4 0,-2 z"
     id="terr15-8" />
  <path
     d="m 1480,594 0,7 20,3 10,1 10,-4 -10,-4 -20,-3 z"
     id="terr15-9" />
  <path
     d="m 1580,541 -10,6 0,-2 -10,-2 -10,9 0,7 0,3 0,6 0,6 0,8 0,2 0,-6 0,-6 0,-4 10,7 0,5 10,-2 0,-8 0,-7 0,-5 0,-5 -10,5 0,-2 0,-8 0,-1 10,1 0,4 10,-3 0,-5 0,-3 z"
     id="terr15-10" />
  <path
     d="m 1560,496 20,-1 10,-3 0,5 0,5 0,6 -10,-2 0,7 0,2 0,-9 -10,-5 -10,-1 0,-2 z"
     id="terr15-11" />
  <path
     d="m 1550,435 -10,5 10,5 -10,5 0,-4 10,6 0,2 0,7 10,0 0,-6 -10,-5 10,-8 0,-6 -10,-4 z"
     id="terr15-12" />
  <path
     d="m 1540,479 -10,13 10,1 0,-10 z"
     id="terr15-13" />
  <path
     d="m 1550,466 10,10 0,4 10,-5 -10,-4 z"
     id="terr15-14" />
  <path
     d="m 1570,472 10,7 10,-1 -10,-6 z"
     id="terr15-15" />
  <path
     d="m 1480,593 0,9 -20,0 0,-4 10,-6 0,-2 10,6 z"
     id="terr16-1" />
  <path
     d="m 1530,508 c 0,1 -10,9 -10,9 l -10,10 0,7 -10,3 -10,0 0,11 0,17 10,6 0,1 10,-3 10,2 10,2 0,-9 10,-14 0,-7 0,1 0,-8 c 0,0 0,-4 0,-7 0,-2 0,-11 0,-11 l 0,-5 z"
     id="terr16-2" />
  <path
     d="m 1410,515 0,6 0,9 10,11 10,12 10,11 10,17 0,7 10,0 10,-10 0,-7 -20,-9 -10,-14 0,-9 -10,-9 -10,-7 -10,-5 0,-3 z"
     id="terr16-3" />
  <path
     d="m 1460,539 -10,4 0,0 0,-9 -10,-4 0,-10 -10,1 0,-9 0,-4 0,-3 -10,-6 0,-2 0,-7 0,-3 0,-6 0,-4 10,-6 0,-5 -10,-7 0,-9 0,-8 0,-7 -10,-5 10,-7 0,-5 10,0 0,8 0,6 10,1 0,0 10,2 0,6 10,4 0,4 0,5 -10,4 -10,7 0,3 0,-8 0,7 -10,3 0,7 0,6 0,7 0,6 10,5 0,5 0,7 10,5 0,8 10,6 0,5 z"
     id="terr16-4" />
  <path
     d="m 1440,468 10,7 0,4 10,1 0,7 0,6 10,0 0,-3 0,-8 10,4 0,-4 0,-5 0,-4 10,-5 -10,-8 0,-9 0,-6 -10,-6 0,-4 -10,-7 0,-3 -10,-7 10,-5 0,-2 10,-2 10,-1 0,-9 0,-11 10,-9 -10,-4 -10,-3 -10,-1 -10,-2 0,-1 0,-3 -10,3 0,3 0,5 -10,1 0,1 0,-3 -10,-2 0,-4 -10,-2 0,3 0,5 0,6 0,6 0,7 0,4 10,7 0,7 0,6 10,-1 0,7 0,8 10,1 0,0 10,2 0,6 10,8 0,6 -10,3 -10,6 z"
     id="terr17" />
  <path
     d="m 1490,378 10,-7 0,-9 10,-1 10,5 10,3 0,2 0,9 0,6 0,6 -10,5 -10,5 -10,0 -10,0 0,6 -10,6 0,-7 0,1 0,-11 0,-10 z"
     id="terr18-1" />
  <path
     d="m 1480,418 0,5 -10,5 10,7 10,-5 0,-6 z"
     id="terr18-2" />
  <path
     d="m 1540,388 0,8 -10,9 10,2 10,-2 0,-7 0,-7 z"
     id="terr18-3" />
  <path
     d="m 1500,326 0,16 0,8 -10,2 -10,-3 -10,-4 0,-2 0,10 -10,9 10,8 0,2 20,6 10,-7 0,-9 10,-1 20,11 0,-4 10,-13 -10,-5 -20,-3 0,-9 0,-5 -10,-6 z"
     id="terr19" />
  <path
     d="m 1490,301 0,6 0,8 0,3 10,0 0,8 0,1 10,10 0,10 20,3 0,-5 -10,-5 0,-6 -10,-6 0,-4 0,-4 0,-4 10,-3 0,-1 0,-3 0,-2 -10,-3 -10,2 0,-1 0,-3 -10,0 z"
     id="terr22" />
  <path
     d="m 1490,318 0,5 -10,4 0,2 -10,0 0,-18 0,-9 0,-13 0,-8 0,-4 0,6 -10,4 -10,7 0,4 0,0 -10,-3 -10,-2 -10,-3 0,-4 -10,-3 0,-3 0,-4 -50,-4 0,6 0,8 0,5 10,0 20,2 10,0 10,2 10,3 0,4 10,7 -10,7 0,7 0,4 0,2 10,0 0,2 10,0 0,-2 10,2 0,4 0,9 0,8 0,6 0,8 0,3 20,2 0,-9 0,-20 20,10 10,-2 0,-8 0,-17 0,-7 z"
     id="terr23" />
  <path
     d="m 1500,251 0,-14 0,-9 -10,-6 -10,-4 -10,1 -10,2 -10,9 0,7 20,3 -10,17 -10,-2 -10,3 0,6 -10,8 -20,5 0,3 10,6 0,4 10,3 10,2 10,3 0,-1 0,-3 10,-8 10,-3 0,-6 0,13 0,12 0,9 0,9 0,9 0,0 20,-6 0,-5 0,-4 0,-7 0,-7 0,-5 0,-2 10,-10 10,-9 0,-8 -10,-3 0,-1 -10,-7 z"
     id="terr21" />
  <path
     d="m 1250,305 20,9 10,7 0,11 10,11 10,11 0,5 0,6 -20,0 -20,-6 0,-2 -10,8 -10,8 0,5 0,5 10,6 -10,4 0,4 -10,-1 0,-6 0,-6 -10,0 0,3 -10,1 -10,0 -10,-4 10,-15 -10,-5 0,-6 10,-2 0,1 10,0 30,-33 0,0 0,-7 10,-10 z"
     id="terr31" />
  <path
     d="m 1270,408 0,5 -10,-4 -10,4 -10,-1 0,-5 10,-4 -10,-7 0,-2 10,-6 -10,-9 0,-5 20,-17 20,7 -10,6 10,7 0,4 10,2 10,0 0,2 10,5 10,5 0,4 -10,5 -10,6 -10,0 -10,0 z"
     id="terr30" />
  <path
     d="m 1280,363 0,2 20,0 0,-3 10,7 10,2 10,3 0,6 0,8 0,10 0,9 -10,10 0,9 0,5 -10,0 0,-7 0,-10 0,-7 0,-3 10,-4 0,-5 -10,-5 0,-5 -10,-3 -10,0 -10,-1 -10,-4 0,-8 z"
     id="terr29" />
  <path
     d="m 1330,374 10,5 10,-5 0,-6 10,-3 0,2 0,5 0,4 -10,-1 0,4 0,4 0,3 0,5 10,8 0,4 0,3 -10,-1 -10,0 0,-4 -10,-2 0,-8 0,-11 z"
     id="terr28" />
  <path
     d="m 1360,375 10,1 10,-5 0,1 0,8 0,7 0,8 0,5 0,6 0,6 -10,-5 0,-4 -10,1 0,2 -10,-1 10,-5 0,-4 -10,-6 0,-7 0,-4 0,-4 z"
     id="terr25" />
  <path
     d="m 1330,399 10,2 0,4 10,1 -10,5 -10,10 0,11 -10,13 0,12 -10,-1 0,-6 10,-8 -10,2 0,7 0,10 0,6 -10,0 -10,0 c 0,0 0,-8 0,-8 0,-1 0,-12 0,-12 l 0,-7 0,-1 0,6 -10,10 0,3 -10,-9 0,-8 0,-6 -10,-7 0,-7 10,-7 0,-2 0,-4 10,2 20,-1 10,-4 0,7 0,4 0,8 0,7 10,0 0,-6 10,-14 0,-10 z"
     id="terr26" />
  <path
     d="m 1290,439 0,4 -10,12 0,3 10,16 0,11 0,12 10,1 10,-8 0,-8 0,-9 0,-6 -20,0 0,-9 0,-10 0,-9 z"
     id="terr27-1" />
  <path
     d="m 1310,491 0,0 10,8 0,8 0,5 -10,-4 0,-6 0,-7 z"
     id="terr27-2" />
  <path
     d="m 1260,510 0,2 0,6 10,1 0,0 0,-6 z"
     id="terr27-3" />
  <path
     d="m 1420,477 0,-10 -10,-14 0,-12 0,-2 -10,8 0,-4 -10,-7 0,-5 0,-3 0,-6 -10,-5 0,-5 0,-6 0,-7 0,-18 0,-9 0,-1 -10,4 -10,-1 0,-7 0,-2 -10,2 0,7 -10,5 -10,-5 -20,-6 -10,-5 0,-4 -10,-17 -10,-10 0,-11 -30,-17 0,-4 -10,-4 10,-6 20,-7 10,-9 0,-5 -10,-1 0,-6 10,-4 10,-8 0,-16 30,2 10,3 -10,12 10,4 10,3 10,6 10,8 0,6 0,13 10,0 20,2 10,0 20,6 10,4 0,8 -10,10 0,8 10,0 0,2 10,0 0,-2 10,2 0,12 0,10 0,7 0,6 -10,2 0,8 -10,2 0,-3 -10,-2 0,-3 -10,-3 0,3 0,8 0,2 0,8 0,5 0,6 10,8 0,11 0,5 -10,7 10,16 10,20 z"
     id="terr24" />
  <path
     d="m 1500,251 10,2 10,-2 20,10 10,8 0,5 0,6 0,5 0,3 0,-3 -10,5 0,6 10,5 10,6 10,4 0,8 -10,7 0,3 -10,-3 0,-8 0,-6 0,-4 -10,-3 0,-3 -10,-3 0,-8 -10,2 0,2 -10,-4 0,-5 0,-8 0,-4 0,-8 -20,-4 0,-7 z"
     id="terr13-1" />
  <path
     d="m 1600,257 0,10 0,11 10,-6 0,3 10,1 0,-6 0,-4 0,-2 -10,-2 -10,-6 z"
     id="terr13-2" />
  <path
     d="m 1610,282 0,8 0,6 10,5 -10,5 0,5 c 0,0 -10,4 -10,4 0,0 -10,2 -10,2 l -10,1 0,4 0,5 10,-1 0,-3 10,3 10,0 0,-4 10,-4 10,-5 -10,-9 0,-2 0,-3 10,-3 -10,-3 0,-3 0,-4 z"
     id="terr13-3" />
  <path
     d="m 1580,330 c 0,0 0,5 0,6 0,0 0,9 0,9 l 0,-8 z"
     id="terr13-4" />
  <path
     d="m 1590,327 0,4 10,2 0,-3 z"
     id="terr13-5" />
</svg>
